<?xml version="1.0" encoding="utf-8"?>
<!-- Generator: Adobe Illustrator 22.1.0, SVG Export Plug-In . SVG Version: 6.00 Build 0)  -->
<svg version="1.1" id="Layer_1" xmlns="http://www.w3.org/2000/svg" xmlns:xlink="http://www.w3.org/1999/xlink" x="0px" y="0px"
	 viewBox="0 0 1280 800" style="enable-background:new 0 0 1280 800;" xml:space="preserve">
<style type="text/css">
	.st0{display:none;}
	.st1{display:inline;fill:#FF4402;}
	.st2{display:none;fill:#FF4402;}
	.st3{display:inline;}
	.st4{fill:#15A075;}
	.st5{fill:#0F916B;}
	.st6{fill:#0CC490;}
	.st7{fill:#10B289;}
</style>
<g class="st0">
	<path class="st1" d="M0,667.3c0,0,59.1-75.9,173.7-83.2c0,0,31.9,76.8,23.7,146.3c-8.2,69.5-72.8,69.5-72.8,69.5H0V667.3z"/>
	<path class="st1" d="M0,667.3c0,0-20.1-258.2,50.7-328.9c0,0,16.2,228.1,58.7,292.9L0,667.3z"/>
	<path class="st1" d="M50.7,502.7c0,0,72.1-114.8,232.7-87.5c0,0-17.8,168.8-101.9,240.5h-127L50.7,502.7z"/>
	<path class="st1" d="M167.1,800c0,0,53.3-215.9,179.2-215.9c0,0,15.4,66.7,15.4,146.3S322.1,800,322.1,800H167.1z"/>
	<path class="st1" d="M220.4,490.5c0,0,103.4-47.4,181.3-12.1c0,0-92.7,50.9-110.3,152.9L181.5,743.9l-56.8-88.2L220.4,490.5z"/>
</g>
<polygon class="st2" points="233.8,522.1 419,447 535.1,461.2 435,570.6 365.2,800 124.7,800 117.9,623.5 "/>
<g id="v1_1_" class="st0">
	<g class="st3">
		<rect x="188.1" y="608.4" class="st4" width="206.1" height="22.8"/>
		<rect x="186.2" y="631.3" class="st5" width="245.3" height="36"/>
		<rect x="266.8" y="584.1" class="st5" width="193.3" height="24.3"/>
		<rect x="153.6" y="667.3" class="st4" width="216.3" height="24.3"/>
		<rect x="181.5" y="730.5" class="st4" width="219.4" height="26.9"/>
		<rect x="86.5" y="757.4" class="st5" width="264.8" height="42.6"/>
		<rect x="109" y="691.6" class="st5" width="223.5" height="38.9"/>
		<rect x="315" y="478.4" class="st4" width="201.3" height="24.3"/>
		<rect x="441.7" y="454.1" class="st5" width="95.5" height="24.3"/>
		<rect x="331.1" y="454.1" class="st5" width="74.2" height="24.3"/>
		<rect x="238.9" y="541.5" class="st4" width="202.4" height="42.6"/>
		<rect x="268.7" y="502.7" class="st5" width="192.2" height="38.9"/>
	</g>
	<g class="st3">
		<rect x="0.3" y="608.4" class="st4" width="188.5" height="22.8"/>
		<rect y="631.3" transform="matrix(-1 -1.224647e-16 1.224647e-16 -1 11.7516 1298.5817)" class="st5" width="11.8" height="36"/>
		<rect x="94.6" y="478.4" class="st4" width="173.7" height="24.3"/>
		<rect x="45.8" y="584.1" class="st5" width="161.9" height="24.3"/>
		<rect x="164.3" y="454.1" class="st5" width="95.5" height="24.3"/>
		<rect x="31.6" y="541.5" class="st4" width="228.2" height="42.6"/>
		<rect x="50.7" y="502.7" class="st5" width="183.1" height="38.9"/>
		<rect x="220.4" y="415.2" class="st4" width="63" height="38.9"/>
	</g>
	<g class="st3">
		<rect x="54.5" y="608.4" class="st6" width="109.8" height="22.8"/>
		<rect x="11.8" y="631.3" class="st7" width="145.1" height="36"/>
		<rect y="667.3" class="st6" width="173.7" height="24.3"/>
		<rect x="111.1" y="584.1" class="st7" width="62.6" height="24.3"/>
		<rect y="730.5" class="st6" width="164.3" height="26.9"/>
		<rect y="757.4" class="st7" width="124.7" height="42.6"/>
		<rect y="691.6" class="st7" width="197.4" height="38.9"/>
	</g>
	<g class="st3">
		<rect x="291.4" y="608.4" class="st6" width="54.9" height="22.8"/>
		<rect x="238.7" y="631.3" class="st7" width="96.1" height="36"/>
		<rect x="306.1" y="584.1" class="st7" width="40.2" height="24.3"/>
		<rect x="256.6" y="667.3" class="st6" width="89.8" height="24.3"/>
		<rect x="197.4" y="730.5" class="st6" width="164.3" height="26.9"/>
		<rect x="197.4" y="757.4" class="st7" width="124.7" height="42.6"/>
		<rect x="230.5" y="691.6" class="st7" width="151.2" height="38.9"/>
	</g>
	<g class="st3">
		<rect x="0.3" y="478.4" class="st6" width="78.6" height="24.3"/>
		<rect x="0.3" y="584.1" class="st7" width="54.2" height="24.3"/>
		<rect x="21.8" y="356.3" class="st6" width="65.4" height="22.8"/>
		<rect x="80" y="309.2" class="st6" width="22.9" height="22.8"/>
		<rect y="379.1" class="st7" width="75" height="36"/>
		<rect x="45.5" y="332" class="st7" width="47.3" height="24.3"/>
		<rect y="454.1" class="st7" width="62.9" height="24.3"/>
		<rect y="541.5" class="st6" width="78.9" height="42.6"/>
		<rect y="502.7" class="st7" width="94.6" height="38.9"/>
		<rect y="415.2" class="st6" width="83.8" height="38.9"/>
	</g>
</g>
<g id="v2_4_">
	<g>
		<g id="v2">
			<g>
				<rect x="135.6" y="661.9" class="st4" width="148.5" height="16.5"/>
				<rect x="134.2" y="678.4" class="st5" width="176.8" height="26"/>
				<rect x="192.3" y="644.4" class="st5" width="139.3" height="17.5"/>
				<rect x="110.7" y="704.4" class="st4" width="155.9" height="17.5"/>
				<rect x="130.8" y="749.9" class="st4" width="158.1" height="19.4"/>
				<rect x="62.3" y="769.3" class="st5" width="190.9" height="30.7"/>
				<rect x="78.5" y="721.9" class="st5" width="161.1" height="28"/>
				<rect x="227" y="568.2" class="st4" width="145.1" height="17.5"/>
				<rect x="318.4" y="550.7" class="st5" width="68.8" height="17.5"/>
				<rect x="238.7" y="550.7" class="st5" width="53.5" height="17.5"/>
				<rect x="172.2" y="613.7" class="st4" width="145.9" height="30.7"/>
				<rect x="193.6" y="585.7" class="st5" width="138.5" height="28"/>
			</g>
			<g>
				<rect y="661.9" class="st4" width="136.1" height="16.5"/>
				<rect y="678.4" transform="matrix(-1 -1.224647e-16 1.224647e-16 -1 8.4698 1382.7567)" class="st5" width="8.5" height="26"/>
				<rect x="68.2" y="568.2" class="st4" width="125.2" height="17.5"/>
				<rect x="33" y="644.4" class="st5" width="116.7" height="17.5"/>
				<rect x="118.4" y="550.7" class="st5" width="68.8" height="17.5"/>
				<rect x="22.8" y="613.7" class="st4" width="164.4" height="30.7"/>
				<rect x="36.6" y="585.7" class="st5" width="131.9" height="28"/>
				<rect x="158.9" y="522.6" class="st4" width="45.4" height="28"/>
			</g>
			<g>
				<rect x="39.3" y="661.9" class="st6" width="79.2" height="16.5"/>
				<rect x="8.5" y="678.4" class="st7" width="104.6" height="26"/>
				<rect y="704.4" class="st6" width="125.2" height="17.5"/>
				<rect x="80.1" y="644.4" class="st7" width="45.1" height="17.5"/>
				<rect y="749.9" class="st6" width="118.4" height="19.4"/>
				<rect y="769.3" class="st7" width="89.9" height="30.7"/>
				<rect y="721.9" class="st7" width="142.3" height="28"/>
			</g>
			<g>
				<rect x="210" y="661.9" class="st6" width="39.6" height="16.5"/>
				<rect x="172" y="678.4" class="st7" width="69.3" height="26"/>
				<rect x="220.6" y="644.4" class="st7" width="29" height="17.5"/>
				<rect x="184.9" y="704.4" class="st6" width="64.7" height="17.5"/>
				<rect x="142.3" y="749.9" class="st6" width="118.4" height="19.4"/>
				<rect x="142.3" y="769.3" class="st7" width="89.9" height="30.7"/>
				<rect x="166.1" y="721.9" class="st7" width="109" height="28"/>
			</g>
			<g>
				<rect x="0.2" y="568.2" class="st6" width="56.7" height="17.5"/>
				<rect y="644.4" class="st7" width="39.3" height="17.5"/>
				<rect x="15.7" y="480.2" class="st6" width="47.1" height="16.5"/>
				<rect x="57.6" y="446.2" class="st6" width="16.5" height="16.5"/>
				<rect y="496.7" class="st7" width="54" height="26"/>
				<rect x="32.8" y="462.7" class="st7" width="34.1" height="17.5"/>
				<rect y="550.7" class="st7" width="45.3" height="17.5"/>
				<rect y="613.7" class="st6" width="56.9" height="30.7"/>
				<rect y="585.7" class="st7" width="68.2" height="28"/>
				<rect y="522.6" class="st6" width="60.4" height="28"/>
			</g>
		</g>
		<g id="v2_1_">
			<g>
				<rect x="114.2" y="463.7" class="st4" width="148.5" height="16.5"/>
				<rect x="112.9" y="480.1" class="st5" width="176.8" height="26"/>
				<rect x="170.9" y="446.2" class="st5" width="139.3" height="17.5"/>
				<rect x="89.3" y="506.1" class="st4" width="155.9" height="17.5"/>
				<rect x="109.4" y="551.6" class="st4" width="158.1" height="19.4"/>
				<rect x="41" y="571" class="st5" width="190.9" height="30.7"/>
				<rect x="57.2" y="523.6" class="st5" width="161.1" height="28"/>
				<rect x="205.7" y="369.9" class="st4" width="145.1" height="17.5"/>
				<rect x="297" y="352.4" class="st5" width="68.8" height="17.5"/>
				<rect x="217.3" y="352.4" class="st5" width="53.5" height="17.5"/>
				<rect x="150.8" y="415.5" class="st4" width="145.9" height="30.7"/>
				<rect x="172.3" y="387.4" class="st5" width="138.5" height="28"/>
			</g>
			<g>
				<rect y="463.7" class="st4" width="114.7" height="16.5"/>
				<rect x="46.8" y="369.9" class="st4" width="125.2" height="17.5"/>
				<rect x="11.6" y="446.2" class="st5" width="116.7" height="17.5"/>
				<rect x="97.1" y="352.4" class="st5" width="68.8" height="17.5"/>
				<rect x="1.4" y="415.5" class="st4" width="164.4" height="30.7"/>
				<rect x="15.2" y="387.4" class="st5" width="131.9" height="28"/>
				<rect x="137.5" y="324.4" class="st4" width="45.4" height="28"/>
			</g>
			<g>
				<rect x="17.9" y="463.7" class="st6" width="79.2" height="16.5"/>
				<rect y="480.1" class="st7" width="91.7" height="26"/>
				<rect y="506.1" class="st6" width="103.8" height="17.5"/>
				<rect x="58.7" y="446.2" class="st7" width="45.1" height="17.5"/>
				<rect y="551.6" class="st6" width="97.1" height="19.4"/>
				<rect y="571" class="st7" width="68.5" height="30.7"/>
				<rect y="523.6" class="st7" width="120.9" height="28"/>
			</g>
			<g>
				<rect x="188.6" y="463.7" class="st6" width="39.6" height="16.5"/>
				<rect x="150.7" y="480.1" class="st7" width="69.3" height="26"/>
				<rect x="199.2" y="446.2" class="st7" width="29" height="17.5"/>
				<rect x="163.5" y="506.1" class="st6" width="64.7" height="17.5"/>
				<rect x="120.9" y="551.6" class="st6" width="118.4" height="19.4"/>
				<rect x="120.9" y="571" class="st7" width="89.9" height="30.7"/>
				<rect x="144.7" y="523.6" class="st7" width="109" height="28"/>
			</g>
			<g>
				<rect y="369.9" class="st6" width="35.5" height="17.5"/>
				<rect y="446.2" class="st7" width="17.9" height="17.5"/>
				<rect y="282" class="st6" width="41.5" height="16.5"/>
				<rect x="36.2" y="248" class="st6" width="16.5" height="16.5"/>
				<rect y="298.4" class="st7" width="32.7" height="26"/>
				<rect x="11.4" y="264.5" class="st7" width="34.1" height="17.5"/>
				<rect y="352.4" class="st7" width="23.9" height="17.5"/>
				<rect y="415.5" class="st6" width="35.5" height="30.7"/>
				<rect y="387.4" class="st7" width="46.8" height="28"/>
				<rect y="324.4" class="st6" width="39" height="28"/>
			</g>
		</g>
	</g>
	<g>
		<g id="v2_3_">
			<g>
				
					<rect x="995.9" y="661.9" transform="matrix(-1 -4.489710e-11 4.489710e-11 -1 2140.3201 1340.3335)" class="st4" width="148.5" height="16.5"/>
				
					<rect x="969" y="678.4" transform="matrix(-1 -4.490553e-11 4.490553e-11 -1 2114.7322 1382.7567)" class="st5" width="176.8" height="26"/>
				
					<rect x="948.4" y="644.4" transform="matrix(-1 -4.489177e-11 4.489177e-11 -1 2036.094 1306.3636)" class="st5" width="139.3" height="17.5"/>
				
					<rect x="1013.4" y="704.4" transform="matrix(-1 -4.489399e-11 4.489399e-11 -1 2182.7434 1426.2341)" class="st4" width="155.9" height="17.5"/>
				
					<rect x="991.1" y="749.9" transform="matrix(-1 -4.489576e-11 4.489576e-11 -1 2140.3201 1519.1899)" class="st4" width="158.1" height="19.4"/>
				
					<rect x="1026.8" y="769.3" transform="matrix(-1 -4.489665e-11 4.489665e-11 -1 2244.4648 1569.2915)" class="st5" width="190.9" height="30.7"/>
				
					<rect x="1040.4" y="721.9" transform="matrix(-1 -4.489399e-11 4.489399e-11 -1 2241.8464 1471.7716)" class="st5" width="161.1" height="28"/>
				
					<rect x="907.9" y="568.2" transform="matrix(-1 -4.490509e-11 4.490509e-11 -1 1960.8706 1153.8721)" class="st4" width="145.1" height="17.5"/>
				
					<rect x="892.8" y="550.7" transform="matrix(-1 -4.491886e-11 4.491886e-11 -1 1854.4712 1118.8479)" class="st5" width="68.8" height="17.5"/>
				
					<rect x="987.8" y="550.7" transform="matrix(-1 -4.491397e-11 4.491397e-11 -1 2029.1613 1118.8479)" class="st5" width="53.5" height="17.5"/>
				
					<rect x="961.9" y="613.7" transform="matrix(-1 -4.489532e-11 4.489532e-11 -1 2069.7246 1258.1432)" class="st4" width="145.9" height="30.7"/>
				
					<rect x="947.8" y="585.7" transform="matrix(-1 -4.489088e-11 4.489088e-11 -1 2034.1943 1199.4094)" class="st5" width="138.5" height="28"/>
			</g>
			<g>
				
					<rect x="1143.9" y="661.9" transform="matrix(-1 -4.490331e-11 4.490331e-11 -1 2423.9302 1340.3335)" class="st4" width="136.1" height="16.5"/>
				<rect x="1271.5" y="678.4" class="st5" width="8.5" height="26"/>
				
					<rect x="1086.6" y="568.2" transform="matrix(-1 -4.490331e-11 4.490331e-11 -1 2298.415 1153.8721)" class="st4" width="125.2" height="17.5"/>
				
					<rect x="1130.4" y="644.4" transform="matrix(-1 -4.488821e-11 4.488821e-11 -1 2377.3726 1306.3636)" class="st5" width="116.7" height="17.5"/>
				
					<rect x="1092.8" y="550.7" transform="matrix(-1 -4.489221e-11 4.489221e-11 -1 2254.3284 1118.8479)" class="st5" width="68.8" height="17.5"/>
				
					<rect x="1092.8" y="613.7" transform="matrix(-1 -4.489710e-11 4.489710e-11 -1 2349.9768 1258.1432)" class="st4" width="164.4" height="30.7"/>
				
					<rect x="1111.5" y="585.7" transform="matrix(-1 -4.490065e-11 4.490065e-11 -1 2354.905 1199.4094)" class="st5" width="131.9" height="28"/>
				
					<rect x="1075.7" y="522.6" transform="matrix(-1 -4.488067e-11 4.488067e-11 -1 2196.8704 1073.3104)" class="st4" width="45.4" height="28"/>
			</g>
			<g>
				
					<rect x="1161.6" y="661.9" transform="matrix(-1 -4.489310e-11 4.489310e-11 -1 2402.3025 1340.3335)" class="st6" width="79.2" height="16.5"/>
				
					<rect x="1166.9" y="678.4" transform="matrix(-1 -4.488244e-11 4.488244e-11 -1 2438.4578 1382.7567)" class="st7" width="104.6" height="26"/>
				
					<rect x="1154.8" y="704.4" transform="matrix(-1 -4.490331e-11 4.490331e-11 -1 2434.7859 1426.2341)" class="st6" width="125.2" height="17.5"/>
				
					<rect x="1154.8" y="644.4" transform="matrix(-1 -4.489932e-11 4.489932e-11 -1 2354.7031 1306.3636)" class="st7" width="45.1" height="17.5"/>
				
					<rect x="1161.6" y="749.9" transform="matrix(-1 -4.490864e-11 4.490864e-11 -1 2441.5647 1519.1899)" class="st6" width="118.4" height="19.4"/>
				
					<rect x="1190.1" y="769.3" transform="matrix(-1 -4.491442e-11 4.491442e-11 -1 2470.1326 1569.2915)" class="st7" width="89.9" height="30.7"/>
				
					<rect x="1137.7" y="721.9" transform="matrix(-1 -4.490509e-11 4.490509e-11 -1 2417.6973 1471.7716)" class="st7" width="142.3" height="28"/>
			</g>
			<g>
				
					<rect x="1030.4" y="661.9" transform="matrix(-1 -4.489310e-11 4.489310e-11 -1 2100.3667 1340.3335)" class="st6" width="39.6" height="16.5"/>
				
					<rect x="1038.7" y="678.4" transform="matrix(-1 -4.489310e-11 4.489310e-11 -1 2146.6414 1382.7567)" class="st7" width="69.3" height="26"/>
				
					<rect x="1030.4" y="644.4" transform="matrix(-1 -4.489932e-11 4.489932e-11 -1 2089.7874 1306.3636)" class="st7" width="29" height="17.5"/>
				
					<rect x="1030.4" y="704.4" transform="matrix(-1 -4.487756e-11 4.487756e-11 -1 2125.47 1426.2341)" class="st6" width="64.7" height="17.5"/>
				
					<rect x="1019.3" y="749.9" transform="matrix(-1 -4.489310e-11 4.489310e-11 -1 2156.9592 1519.1899)" class="st6" width="118.4" height="19.4"/>
				
					<rect x="1047.8" y="769.3" transform="matrix(-1 -4.489443e-11 4.489443e-11 -1 2185.5271 1569.2915)" class="st7" width="89.9" height="30.7"/>
				
					<rect x="1004.9" y="721.9" transform="matrix(-1 -4.490420e-11 4.490420e-11 -1 2118.7944 1471.7716)" class="st7" width="109" height="28"/>
			</g>
			<g>
				
					<rect x="1223.1" y="568.2" transform="matrix(-1 -4.488244e-11 4.488244e-11 -1 2502.8994 1153.8721)" class="st6" width="56.7" height="17.5"/>
				
					<rect x="1240.7" y="644.4" transform="matrix(-1 -4.493928e-11 4.493928e-11 -1 2520.7378 1306.3636)" class="st7" width="39.3" height="17.5"/>
				
					<rect x="1217.2" y="480.2" transform="matrix(-1 -4.488733e-11 4.488733e-11 -1 2481.4753 976.8966)" class="st6" width="47.1" height="16.5"/>
				
					<rect x="1205.9" y="446.2" transform="matrix(-1 -4.489443e-11 4.489443e-11 -1 2428.2607 908.9569)" class="st6" width="16.5" height="16.5"/>
				
					<rect x="1226" y="496.7" transform="matrix(-1 -4.490465e-11 4.490465e-11 -1 2505.9626 1019.3198)" class="st7" width="54" height="26"/>
				
					<rect x="1213.1" y="462.7" transform="matrix(-1 -4.485580e-11 4.485580e-11 -1 2460.2546 942.9268)" class="st7" width="34.1" height="17.5"/>
				
					<rect x="1234.7" y="550.7" transform="matrix(-1 -4.493396e-11 4.493396e-11 -1 2514.7009 1118.8479)" class="st7" width="45.3" height="17.5"/>
				
					<rect x="1223.1" y="613.7" transform="matrix(-1 -4.489976e-11 4.489976e-11 -1 2503.1206 1258.1432)" class="st6" width="56.9" height="30.7"/>
				
					<rect x="1211.8" y="585.7" transform="matrix(-1 -4.489754e-11 4.489754e-11 -1 2491.8145 1199.4094)" class="st7" width="68.2" height="28"/>
				
					<rect x="1219.6" y="522.6" transform="matrix(-1 -4.490198e-11 4.490198e-11 -1 2499.5991 1073.3104)" class="st6" width="60.4" height="28"/>
			</g>
		</g>
		<g id="v2_2_">
			<g>
				
					<rect x="1017.3" y="463.7" transform="matrix(-1 -4.489710e-11 4.489710e-11 -1 2183.0691 943.8344)" class="st4" width="148.5" height="16.5"/>
				
					<rect x="990.3" y="480.1" transform="matrix(-1 -4.489488e-11 4.489488e-11 -1 2157.481 986.2576)" class="st5" width="176.8" height="26"/>
				
					<rect x="969.8" y="446.2" transform="matrix(-1 -4.490509e-11 4.490509e-11 -1 2078.8428 909.8646)" class="st5" width="139.3" height="17.5"/>
				
					<rect x="1034.8" y="506.1" transform="matrix(-1 -4.489399e-11 4.489399e-11 -1 2225.4924 1029.735)" class="st4" width="155.9" height="17.5"/>
				
					<rect x="1012.5" y="551.6" transform="matrix(-1 -4.489576e-11 4.489576e-11 -1 2183.0691 1122.6908)" class="st4" width="158.1" height="19.4"/>
				
					<rect x="1048.2" y="571" transform="matrix(-1 -4.489665e-11 4.489665e-11 -1 2287.2136 1172.7924)" class="st5" width="190.9" height="30.7"/>
				
					<rect x="1061.7" y="523.6" transform="matrix(-1 -4.489399e-11 4.489399e-11 -1 2284.5952 1075.2725)" class="st5" width="161.1" height="28"/>
				
					<rect x="929.3" y="369.9" transform="matrix(-1 -4.489887e-11 4.489887e-11 -1 2003.6195 757.3729)" class="st4" width="145.1" height="17.5"/>
				
					<rect x="914.2" y="352.4" transform="matrix(-1 -4.489221e-11 4.489221e-11 -1 1897.2201 722.3487)" class="st5" width="68.8" height="17.5"/>
				
					<rect x="1009.2" y="352.4" transform="matrix(-1 -4.489710e-11 4.489710e-11 -1 2071.9102 722.3487)" class="st5" width="53.5" height="17.5"/>
				
					<rect x="983.3" y="415.5" transform="matrix(-1 -4.490775e-11 4.490775e-11 -1 2112.4734 861.644)" class="st4" width="145.9" height="30.7"/>
				
					<rect x="969.2" y="387.4" transform="matrix(-1 -4.490376e-11 4.490376e-11 -1 2076.9431 802.9103)" class="st5" width="138.5" height="28"/>
			</g>
			<g>
				
					<rect x="1165.3" y="463.7" transform="matrix(-1 -4.489798e-11 4.489798e-11 -1 2445.3044 943.8344)" class="st4" width="114.7" height="16.5"/>
				
					<rect x="1108" y="369.9" transform="matrix(-1 -4.489576e-11 4.489576e-11 -1 2341.1638 757.3729)" class="st4" width="125.2" height="17.5"/>
				
					<rect x="1151.7" y="446.2" transform="matrix(-1 -4.490376e-11 4.490376e-11 -1 2420.1213 909.8646)" class="st5" width="116.7" height="17.5"/>
				
					<rect x="1114.1" y="352.4" transform="matrix(-1 -4.490553e-11 4.490553e-11 -1 2297.0774 722.3487)" class="st5" width="68.8" height="17.5"/>
				
					<rect x="1114.1" y="415.5" transform="matrix(-1 -4.489710e-11 4.489710e-11 -1 2392.7258 861.644)" class="st4" width="164.4" height="30.7"/>
				
					<rect x="1132.9" y="387.4" transform="matrix(-1 -4.488688e-11 4.488688e-11 -1 2397.6541 802.9103)" class="st5" width="131.9" height="28"/>
				
					<rect x="1097.1" y="324.4" transform="matrix(-1 -4.490109e-11 4.490109e-11 -1 2239.6191 676.8113)" class="st4" width="45.4" height="28"/>
			</g>
			<g>
				
					<rect x="1182.9" y="463.7" transform="matrix(-1 -4.489310e-11 4.489310e-11 -1 2445.0515 943.8344)" class="st6" width="79.2" height="16.5"/>
				
					<rect x="1188.3" y="480.1" transform="matrix(-1 -4.491042e-11 4.491042e-11 -1 2468.302 986.2576)" class="st7" width="91.7" height="26"/>
				
					<rect x="1176.2" y="506.1" transform="matrix(-1 -4.489710e-11 4.489710e-11 -1 2456.1604 1029.735)" class="st6" width="103.8" height="17.5"/>
				
					<rect x="1176.2" y="446.2" transform="matrix(-1 -4.485890e-11 4.485890e-11 -1 2397.4519 909.8646)" class="st7" width="45.1" height="17.5"/>
				
					<rect x="1182.9" y="551.6" transform="matrix(-1 -4.490287e-11 4.490287e-11 -1 2462.9392 1122.6908)" class="st6" width="97.1" height="19.4"/>
				
					<rect x="1211.5" y="571" transform="matrix(-1 -4.490864e-11 4.490864e-11 -1 2491.5071 1172.7924)" class="st7" width="68.5" height="30.7"/>
				
					<rect x="1159.1" y="523.6" transform="matrix(-1 -4.490021e-11 4.490021e-11 -1 2439.0718 1075.2725)" class="st7" width="120.9" height="28"/>
			</g>
			<g>
				
					<rect x="1051.8" y="463.7" transform="matrix(-1 -4.489310e-11 4.489310e-11 -1 2143.1157 943.8344)" class="st6" width="39.6" height="16.5"/>
				
					<rect x="1060.1" y="480.1" transform="matrix(-1 -4.489310e-11 4.489310e-11 -1 2189.3901 986.2576)" class="st7" width="69.3" height="26"/>
				
					<rect x="1051.8" y="446.2" transform="matrix(-1 -4.489932e-11 4.489932e-11 -1 2132.5364 909.8646)" class="st7" width="29" height="17.5"/>
				
					<rect x="1051.8" y="506.1" transform="matrix(-1 -4.490553e-11 4.490553e-11 -1 2168.219 1029.735)" class="st6" width="64.7" height="17.5"/>
				
					<rect x="1040.6" y="551.6" transform="matrix(-1 -4.489310e-11 4.489310e-11 -1 2199.7083 1122.6908)" class="st6" width="118.4" height="19.4"/>
				
					<rect x="1069.2" y="571" transform="matrix(-1 -4.489443e-11 4.489443e-11 -1 2228.2761 1172.7924)" class="st7" width="89.9" height="30.7"/>
				
					<rect x="1026.3" y="523.6" transform="matrix(-1 -4.488733e-11 4.488733e-11 -1 2161.5435 1075.2725)" class="st7" width="109" height="28"/>
			</g>
			<g>
				
					<rect x="1244.5" y="369.9" transform="matrix(-1 -4.490509e-11 4.490509e-11 -1 2524.4951 757.3729)" class="st6" width="35.5" height="17.5"/>
				
					<rect x="1262.1" y="446.2" transform="matrix(-1 -4.494639e-11 4.494639e-11 -1 2542.1121 909.8646)" class="st7" width="17.9" height="17.5"/>
				
					<rect x="1238.5" y="282" transform="matrix(-1 -4.489088e-11 4.489088e-11 -1 2518.5476 580.3975)" class="st6" width="41.5" height="16.5"/>
				
					<rect x="1227.3" y="248" transform="matrix(-1 -4.489443e-11 4.489443e-11 -1 2471.0098 512.4578)" class="st6" width="16.5" height="16.5"/>
				
					<rect x="1247.3" y="298.4" transform="matrix(-1 -4.488599e-11 4.488599e-11 -1 2527.3369 622.8206)" class="st7" width="32.7" height="26"/>
				
					<rect x="1234.4" y="264.5" transform="matrix(-1 -4.490909e-11 4.490909e-11 -1 2503.0034 546.4276)" class="st7" width="34.1" height="17.5"/>
				
					<rect x="1256.1" y="352.4" transform="matrix(-1 -4.489621e-11 4.489621e-11 -1 2536.0754 722.3487)" class="st7" width="23.9" height="17.5"/>
				
					<rect x="1244.5" y="415.5" transform="matrix(-1 -4.493040e-11 4.493040e-11 -1 2524.4951 861.644)" class="st6" width="35.5" height="30.7"/>
				
					<rect x="1233.2" y="387.4" transform="matrix(-1 -4.492019e-11 4.492019e-11 -1 2513.189 802.9103)" class="st7" width="46.8" height="28"/>
				
					<rect x="1241" y="324.4" transform="matrix(-1 -4.488466e-11 4.488466e-11 -1 2520.9736 676.8113)" class="st6" width="39" height="28"/>
			</g>
		</g>
	</g>
</g>
</svg>
