<?xml version="1.0" encoding="utf-8"?>
<!-- Generator: Adobe Illustrator 22.1.0, SVG Export Plug-In . SVG Version: 6.00 Build 0)  -->
<svg version="1.1" id="Layer_1" xmlns="http://www.w3.org/2000/svg" xmlns:xlink="http://www.w3.org/1999/xlink" x="0px" y="0px"
	 viewBox="0 0 369.2 665.6" style="enable-background:new 0 0 369.2 665.6;" xml:space="preserve">
<style type="text/css">
	.st0{fill:#D6D7DD;}
	.st1{fill:#FDE7D8;}
	.st2{fill:#FF4402;}
</style>
<g id="Tijger">
	<g id="Snorharen_Group_2">
		<rect id="Snorharen_6" x="283.5" y="161.6" class="st0" width="53.7" height="3.2"/>
		<rect id="Snorharen_5" x="283.5" y="168.3" class="st0" width="53.7" height="3.2"/>
		<rect id="Snorharen_4" x="283.5" y="174.9" class="st0" width="53.7" height="3.2"/>
	</g>
	<g id="Snorharen_Group_1">
		<rect id="Snorharen_3" x="19.1" y="161.6" class="st0" width="53.7" height="3.2"/>
		<rect id="Snorharen_2" x="19.1" y="168.3" class="st0" width="53.7" height="3.2"/>
		<rect id="Snorharen_1" x="19.1" y="174.9" class="st0" width="53.7" height="3.2"/>
	</g>
	<g id="Even">
		<rect x="239.7" y="618.9" class="st1" width="18" height="31.2"/>
		<rect x="295.7" y="619" class="st1" width="18" height="31.2"/>
		<rect x="322.3" y="611.1" class="st1" width="24.5" height="16.9"/>
		<rect x="315.7" y="557.6" class="st1" width="31.2" height="18"/>
		<rect x="303.1" y="498" class="st1" width="43.5" height="23.5"/>
		<rect id="Even_10" x="55.5" y="498" class="st1" width="101.1" height="23.5"/>
		<rect id="Even_9" x="316.2" y="436.1" class="st1" width="29.8" height="23.4"/>
		<rect id="Even_8" x="104" y="436.1" class="st1" width="168.5" height="23.4"/>
		<rect id="Even_7" x="104" y="371.6" class="st1" width="144.8" height="23.7"/>
		<rect id="Even_6" x="104" y="311.9" class="st1" width="123.8" height="23.1"/>
		<rect id="Even_5" x="104" y="257.7" class="st1" width="105.8" height="20.9"/>
		<rect id="Even_4" x="104" y="207.2" class="st1" width="87.9" height="19.6"/>
		<rect id="Even_3" x="72.9" y="158.2" class="st1" width="105.6" height="19.7"/>
		<rect id="Even_2" x="178.5" y="129.5" class="st1" width="26.8" height="28.7"/>
		<rect id="Even_1" x="57.8" y="102" class="st1" width="120.7" height="27.5"/>
	</g>
	<g id="Oneven">
		<path id="Oneven_18" class="st2" d="M239.7,665.6h-19.1c-10.4,0-18.8-8.4-18.8-18.8l0,0c0-10.4,8.4-18.8,18.8-18.8h19.1V665.6z"/>
		<rect id="Oneven_17" x="257.7" y="628" class="st2" width="37.9" height="37.6"/>
		<path id="Oneven_16" class="st2" d="M331.6,665.6h-17.9V628h55.5l0,0C369.2,648.7,352.4,665.6,331.6,665.6z"/>
		<rect id="Oneven_15" x="331.3" y="575.7" class="st2" width="37.9" height="35.4"/>
		<rect id="Oneven_14" x="331.3" y="521.5" class="st2" width="37.9" height="36"/>
		<rect id="Oneven_13" x="319.3" y="459.5" class="st2" width="49.9" height="38.4"/>
		<rect id="Oneven_12" x="76" y="459.5" class="st2" width="102.3" height="38.4"/>
		<rect id="Oneven_11" x="127.5" y="335" class="st2" width="51.4" height="36.6"/>
		<rect id="Oneven_10" x="127.5" y="278.6" class="st2" width="147.7" height="33.4"/>
		<rect id="Oneven_9" x="127.5" y="226.8" class="st2" width="107" height="30.9"/>
		<rect id="Oneven_8" x="86.5" y="177.9" class="st2" width="184.3" height="29.3"/>
		<rect id="Oneven_7" x="205.3" y="129.5" class="st2" width="108.5" height="28.7"/>
		<rect id="Oneven_6" x="44.5" y="129.5" class="st2" width="108" height="28.7"/>
		<circle id="Oneven_5" class="st2" cx="243.6" cy="115.8" r="14.5"/>
		<circle id="Oneven_4" class="st2" cx="113.4" cy="115.8" r="14.5"/>
		<rect id="Oneven_3" x="141.5" y="72.9" class="st2" width="73.9" height="29.2"/>
		<path id="Oneven_2" class="st2" d="M222.3,102c0,0,12.8-46.5,41.2-46.5s32.5,36,15.1,46.5H222.3z"/>
		<path id="Oneven_1" class="st2" d="M134.7,102c0,0-12.8-46.5-41.2-46.5S61,91.5,78.4,102H134.7z"/>
	</g>
	<path id="Mouth" class="st1" d="M135,177.9c0,0,11.7,19.1,43.2,19.1s44.6-19.1,44.6-19.1H135z"/>
	<path id="Nose" class="st2" d="M152.5,158.2c0,0,7,11.5,25.9,11.5c19,0,26.8-11.5,26.8-11.5H152.5z"/>
	<g id="Zoo">
		<polygon points="88.3,557.6 15.5,557.6 15.5,521.5 123.1,521.5 		"/>
		<polygon points="34.3,575.7 110,575.7 110,611.3 0,611.3 		"/>
		<g id="Zoo2">
			<path d="M292.9,557.6c-4.2-20.6-22.4-36-44.2-36s-40,15.5-44.2,36H292.9z"/>
			<path d="M204.5,575.7c4.2,20.6,22.4,36,44.2,36s40-15.5,44.2-36H204.5z"/>
		</g>
		<g id="Zoo1">
			<path d="M200.9,557.6c-4.2-20.6-22.4-36-44.2-36s-40,15.5-44.2,36H200.9z"/>
			<path d="M112.4,575.7c4.2,20.6,22.4,36,44.2,36s40-15.5,44.2-36H112.4z"/>
		</g>
	</g>
	<g id="London_underground">
		<rect x="127.5" y="395.3" class="st2" width="241.7" height="40.8"/>
		<path class="st2" d="M248.4,365.4c27.7,0,50.3,22.6,50.3,50.3c0,27.7-22.6,50.3-50.3,50.3s-50.3-22.6-50.3-50.3
			S220.6,365.4,248.4,365.4 M248.4,332.8c-45.8,0-82.9,37.2-82.9,82.9s37.2,82.9,82.9,82.9c45.8,0,82.9-37.2,82.9-82.9
			S294.2,332.8,248.4,332.8L248.4,332.8z"/>
	</g>
	<g id="Overlay_london">
		<path d="M202.4,395.3c4.5-10,12.2-18.4,21.8-23.7h-46c-4.5,7.2-8,15.2-10.1,23.7H202.4z"/>
		<path d="M223.7,459.6c-9.4-5.3-16.9-13.6-21.3-23.4H168c2.1,8.4,5.5,16.3,10,23.4H223.7z"/>
	</g>
</g>
</svg>
