<?xml version="1.0" encoding="utf-8"?>
<!-- Generator: Adobe Illustrator 22.1.0, SVG Export Plug-In . SVG Version: 6.00 Build 0)  -->
<svg version="1.1" id="Layer_1" xmlns="http://www.w3.org/2000/svg" xmlns:xlink="http://www.w3.org/1999/xlink" x="0px" y="0px"
	 viewBox="0 0 1280 800" style="enable-background:new 0 0 1280 800;" xml:space="preserve">
<style type="text/css">
	.st0{fill:#D6D7DD;}
	.st1{fill:#FDE7D8;}
	.st2{fill:#FF4402;}
</style>
<g id="Tijger">
	<g id="Snorharen_Group_2">
		<rect id="Snorharen_6" x="738.9" y="204.5" class="st0" width="53.7" height="3.2"/>
		<rect id="Snorharen_5" x="738.9" y="211.2" class="st0" width="53.7" height="3.2"/>
		<rect id="Snorharen_4" x="738.9" y="217.8" class="st0" width="53.7" height="3.2"/>
	</g>
	<g id="Snorharen_Group_1">
		<rect id="Snorharen_3" x="474.5" y="204.5" class="st0" width="53.7" height="3.2"/>
		<rect id="Snorharen_2" x="474.5" y="211.2" class="st0" width="53.7" height="3.2"/>
		<rect id="Snorharen_1" x="474.5" y="217.8" class="st0" width="53.7" height="3.2"/>
	</g>
	<g id="Even">
		<rect x="695.1" y="661.8" class="st1" width="18" height="31.2"/>
		<rect x="751.1" y="661.9" class="st1" width="18" height="31.2"/>
		<rect x="777.7" y="654" class="st1" width="24.5" height="16.9"/>
		<rect x="771.1" y="600.5" class="st1" width="31.2" height="18"/>
		<rect x="758.5" y="540.9" class="st1" width="43.5" height="23.5"/>
		<rect id="Even_10" x="510.9" y="540.9" class="st1" width="101.1" height="23.5"/>
		<rect id="Even_9" x="771.6" y="479" class="st1" width="29.8" height="23.4"/>
		<rect id="Even_8" x="559.4" y="479" class="st1" width="168.5" height="23.4"/>
		<rect id="Even_7" x="559.4" y="414.5" class="st1" width="144.8" height="23.7"/>
		<rect id="Even_6" x="559.4" y="354.8" class="st1" width="123.8" height="23.1"/>
		<rect id="Even_5" x="559.4" y="300.6" class="st1" width="105.8" height="20.9"/>
		<rect id="Even_4" x="559.4" y="250.1" class="st1" width="87.9" height="19.6"/>
		<rect id="Even_3" x="528.3" y="201.1" class="st1" width="105.6" height="19.7"/>
		<rect id="Even_2" x="633.9" y="172.4" class="st1" width="26.8" height="28.7"/>
		<rect id="Even_1" x="513.2" y="144.9" class="st1" width="120.7" height="27.5"/>
	</g>
	<g id="Oneven">
		<path id="Oneven_18" class="st2" d="M695.1,708.5H676c-10.4,0-18.8-8.4-18.8-18.8l0,0c0-10.4,8.4-18.8,18.8-18.8h19.1V708.5z"/>
		<rect id="Oneven_17" x="713.1" y="670.9" class="st2" width="37.9" height="37.6"/>
		<path id="Oneven_16" class="st2" d="M787,708.5h-17.9v-37.6h55.5l0,0C824.6,691.6,807.8,708.5,787,708.5z"/>
		<rect id="Oneven_15" x="786.7" y="618.6" class="st2" width="37.9" height="35.4"/>
		<rect id="Oneven_14" x="786.7" y="564.4" class="st2" width="37.9" height="36"/>
		<rect id="Oneven_13" x="774.7" y="502.4" class="st2" width="49.9" height="38.4"/>
		<rect id="Oneven_12" x="531.4" y="502.4" class="st2" width="102.3" height="38.4"/>
		<rect id="Oneven_11" x="582.9" y="377.9" class="st2" width="51.4" height="36.6"/>
		<rect id="Oneven_10" x="582.9" y="321.5" class="st2" width="147.7" height="33.4"/>
		<rect id="Oneven_9" x="582.9" y="269.7" class="st2" width="107" height="30.9"/>
		<rect id="Oneven_8" x="541.9" y="220.8" class="st2" width="184.3" height="29.3"/>
		<rect id="Oneven_7" x="660.7" y="172.4" class="st2" width="108.5" height="28.7"/>
		<rect id="Oneven_6" x="499.9" y="172.4" class="st2" width="108" height="28.7"/>
		<circle id="Oneven_5" class="st2" cx="699" cy="158.7" r="14.5"/>
		<circle id="Oneven_4" class="st2" cx="568.8" cy="158.7" r="14.5"/>
		<rect id="Oneven_3" x="596.9" y="115.8" class="st2" width="73.9" height="29.2"/>
		<path id="Oneven_2" class="st2" d="M677.7,144.9c0,0,12.8-46.5,41.2-46.5s32.5,36,15.1,46.5H677.7z"/>
		<path id="Oneven_1" class="st2" d="M590.1,144.9c0,0-12.8-46.5-41.2-46.5s-32.5,36-15.1,46.5H590.1z"/>
	</g>
	<path id="Mouth" class="st1" d="M590.4,220.8c0,0,11.7,19.1,43.2,19.1s44.6-19.1,44.6-19.1H590.4z"/>
	<path id="Nose" class="st2" d="M607.9,201.1c0,0,7,11.5,25.9,11.5c19,0,26.8-11.5,26.8-11.5H607.9z"/>
	<g id="Zoo">
		<polygon points="543.7,600.5 470.9,600.5 470.9,564.4 578.5,564.4 		"/>
		<polygon points="489.7,618.6 565.4,618.6 565.4,654.2 455.4,654.2 		"/>
		<g>
			<path d="M656.3,600.5c-4.2-20.6-22.4-36-44.2-36s-40,15.5-44.2,36H656.3z"/>
			<path d="M567.8,618.6c4.2,20.6,22.4,36,44.2,36s40-15.5,44.2-36H567.8z"/>
		</g>
		<g>
			<path d="M748.3,600.5c-4.2-20.6-22.4-36-44.2-36s-40,15.5-44.2,36H748.3z"/>
			<path d="M659.9,618.6c4.2,20.6,22.4,36,44.2,36s40-15.5,44.2-36H659.9z"/>
		</g>
	</g>
	<g id="London_underground">
		<rect x="582.9" y="438.2" class="st2" width="241.7" height="40.8"/>
		<path class="st2" d="M703.8,408.3c27.7,0,50.3,22.6,50.3,50.3c0,27.7-22.6,50.3-50.3,50.3s-50.3-22.6-50.3-50.3
			S676,408.3,703.8,408.3 M703.8,375.7c-45.8,0-82.9,37.2-82.9,82.9s37.2,82.9,82.9,82.9c45.8,0,82.9-37.2,82.9-82.9
			S749.6,375.7,703.8,375.7L703.8,375.7z"/>
	</g>
	<g id="Overlay_london">
		<path d="M657.8,438.2c4.5-10,12.2-18.4,21.8-23.7h-46c-4.5,7.2-8,15.2-10.1,23.7H657.8z"/>
		<path d="M679.1,502.5c-9.4-5.3-16.9-13.6-21.3-23.4h-34.4c2.1,8.4,5.5,16.3,10,23.4H679.1z"/>
	</g>
</g>
<g id="Giraffe">
	<g id="Nek">
		<g id="Wittevlekken">
			<path id="Wittevlekken2" class="st1" d="M779.5,231c9.3,0,16.9,7.6,16.9,16.9s-7.6,16.9-16.9,16.9c-9.3,0-16.9-7.6-16.9-16.9
				S770.3,231,779.5,231 M779.5,198.4c-27.4,0-49.5,22.1-49.5,49.5s22.1,49.5,49.5,49.5s49.5-22.1,49.5-49.5
				S806.9,198.4,779.5,198.4L779.5,198.4z"/>
			<path id="Wittevlekken1" class="st1" d="M806.1,151.2c6.2,0,11.2,5.1,11.2,11.2s-5.1,11.2-11.2,11.2s-11.2-5.1-11.2-11.2
				C794.9,156.3,800,151.2,806.1,151.2 M806.1,129.5c-18.2,0-32.9,14.8-32.9,32.9s14.8,32.9,32.9,32.9s32.9-14.8,32.9-32.9
				S824.3,129.5,806.1,129.5L806.1,129.5z"/>
		</g>
		<g id="Zwartevlekken">
			<path id="Zwartevlekken3" d="M836.2,218.1c-1-2.4-1.5-5-1.5-7.7c0-3.4,0.9-6.8,2.5-9.6l0.9-18.8c-9.8,5.7-16.3,16.3-16.3,28.4
				c0,10.9,5.3,20.5,13.5,26.5L836.2,218.1z"/>
			<path id="Zwartevlekken2" d="M826.5,393c-11.4-7.4-19-20.3-19-34.8c0-16.1,9.2-30.1,22.7-37L832,286
				c-32.7,7.7-57.1,37.1-57.1,72.2c0,32.4,20.8,59.9,49.7,70L826.5,393z"/>
			<path id="Zwartevlekken1" d="M729.4,269.7h-2.3v30.9h-23.6c0,19.7-13.7,36.2-32.2,40.5l-7,13.7h48.1
				c14.5-13.6,23.6-32.8,23.6-54.2C736.2,289.6,733.8,279.2,729.4,269.7z"/>
		</g>
	</g>
	<g id="Hoofd">
		<circle id="Hoofd17" class="st1" cx="822.6" cy="106.6" r="19.7"/>
		<circle id="Hoofd16" cx="852.8" cy="83.1" r="12.9"/>
		<circle id="Hoofd15" cx="803" cy="80.9" r="9.2"/>
		<circle id="Hoofd14" cx="825.4" cy="71.8" r="10.6"/>
		<circle id="Hoofd13" cx="826.8" cy="51" r="8.1"/>
		<circle id="Hoofd12" cx="844.2" cy="60" r="6.7"/>
		<circle id="Hoofd11" cx="858.5" cy="111.2" r="13.6"/>
		<circle id="Hoofd10" cx="863.8" cy="134.5" r="8.2"/>
		<circle id="Hoofd9" cx="887.1" cy="125.6" r="11"/>
		<circle id="Hoofd8" cx="883.3" cy="99.5" r="11"/>
		<circle id="Hoofd7" cx="905.3" cy="104.3" r="6.4"/>
		<circle id="Hoofd6" cx="910.1" cy="124.3" r="7.7"/>
		<circle id="Hoofd5" cx="921.3" cy="110.3" r="6"/>
		<circle id="Hoofd4" cx="938.9" cy="116" r="7.9"/>
		<circle id="Hoofd3" cx="927.6" cy="128.3" r="5.1"/>
		<circle id="Hoofd2" cx="942.5" cy="133.5" r="5.7"/>
		<circle id="Hoofd1" cx="953.4" cy="122.9" r="6.8"/>
	</g>
</g>
</svg>
