<?xml version="1.0" encoding="utf-8"?>
<!-- Generator: Adobe Illustrator 22.1.0, SVG Export Plug-In . SVG Version: 6.00 Build 0)  -->
<svg version="1.1" id="Layer_1" xmlns="http://www.w3.org/2000/svg" xmlns:xlink="http://www.w3.org/1999/xlink" x="0px" y="0px"
	 viewBox="0 0 242 166" style="enable-background:new 0 0 242 166;" xml:space="preserve">
<path d="M241.8,62.6h-40.5c-9-35.9-41.5-62.5-80.3-62.5S49.7,26.7,40.6,62.6H0.2v40.8h40.5c9.1,35.9,41.7,62.5,80.4,62.5
	c38.8,0,71.3-26.6,80.4-62.5H242V62.6H241.8z M121,32.7c20.4,0,38.1,12.3,45.9,29.9H75.1C82.9,45,100.6,32.7,121,32.7z M121,133.3
	c-20.4,0-38.1-12.3-45.9-29.9H167C159.1,121,141.4,133.3,121,133.3z"/>
</svg>
